<svg viewBox="0 0 96 96" xmlns="http://www.w3.org/2000/svg" xmlns:xlink="http://www.w3.org/1999/xlink" id="Icons_Horse" overflow="hidden"><path d="M22.2 67.6C21.6 68.2 20.8 68.7 20 69L20 83C20 84.7 21.3 86 23 86 24.7 86 26 84.7 26 83L26 66.8C27.5 67.6 29.4 67.6 30.8 66.2L33.2 63.8C31.3 63.6 29.4 63.1 27.5 62.3L22.2 67.6Z"/><path d="M87.2 28.2 75.8 16.8C75 16 74 15.5 73 15.2L73 11.5C73 11.2 72.8 11 72.5 11 70.6 11 69 12.6 69 14.5L69 15.4C61.8 18.2 55 35 44 35L28 35C25.5 35 23.3 35.7 21.4 37L16 37C11.6 37 8 40.6 8 45L8 57 16 53.4 16 61C16 59.3 14.7 58 13 58 11.3 58 10 59.3 10 61L10 83C10 84.7 11.3 86 13 86L13 86C14.7 86 16 84.7 16 83L16 66.8C17.5 67.6 19.4 67.6 20.8 66.2L27.1 59.9C29.8 61.2 32.8 62 36 62L49 62 49 83C49 84.7 50.3 86 52 86 53.7 86 55 84.7 55 83L55 62C56.4 62 57.7 61.7 59 61.3L59 83C59 84.7 60.3 86 62 86 63.7 86 65 84.7 65 83L65 56.6C66.3 54.7 67 52.4 67 50L67 52C67 40.4 69.7 31 73 31L74.2 32.2C75.3 33.3 76.9 34 78.4 34L81 34 81.2 34.2C82.8 35.8 85.3 35.8 86.9 34.2L87.2 33.9C88.7 32.3 88.7 29.7 87.2 28.2Z"/></svg>