<svg viewBox="0 0 96 96" xmlns="http://www.w3.org/2000/svg" xmlns:xlink="http://www.w3.org/1999/xlink" id="Icons_CmdTerminal_RTL" overflow="hidden"><path d="M8 17 8 79 88 79 88 17 8 17ZM21 25C21 26.1 20.1 27 19 27 17.9 27 17 26.1 17 25 17 23.9 17.9 23 19 23 20.1 23 21 23.9 21 25ZM28 25C28 26.1 27.1 27 26 27 24.9 27 24 26.1 24 25 24 23.9 24.9 23 26 23 27.1 23 28 23.9 28 25ZM35 25C35 26.1 34.1 27 33 27 31.9 27 31 26.1 31 25 31 23.9 31.9 23 33 23 34.1 23 35 23.9 35 25ZM14 33 82 33 82 73 14 73 14 33Z"/><path d="M59.8 51.5 71.2 40.1 74 42.9 65.4 51.5 74 60.1 71.2 62.9Z"/><rect x="42.1" y="59" width="16" height="4"/></svg>